<svg width="755" height="300" viewBox="0 0 755 300" fill="none" xmlns="http://www.w3.org/2000/svg">
<rect y="100" width="20" height="100" fill="#3284FF"/>
<rect x="140" y="77" width="20" height="146" fill="#3284FF"/>
<rect x="280" y="36" width="20" height="228" fill="#3284FF"/>
<rect x="420" y="36" width="20" height="228" fill="#3284FF"/>
<rect x="560" y="36" width="20" height="228" fill="#3284FF"/>
<rect x="35" y="52" width="20" height="196" fill="#3284FF"/>
<rect x="175" y="52" width="20" height="196" fill="#3284FF"/>
<rect x="315" y="27" width="20" height="246" fill="#3284FF"/>
<rect x="455" y="70" width="20" height="160" fill="#3284FF"/>
<rect x="595" y="22" width="20" height="256" fill="#3284FF"/>
<rect x="70" y="27" width="20" height="246" fill="#3284FF"/>
<rect x="210" y="17" width="20" height="266" fill="#3284FF"/>
<rect x="350" y="52" width="20" height="196" fill="#3284FF"/>
<rect x="490" y="22" width="20" height="256" fill="#3284FF"/>
<rect x="630" y="52" width="20" height="196" fill="#3284FF"/>
<rect x="105" width="20" height="300" fill="#3284FF"/>
<rect x="245" y="70" width="20" height="160" fill="#3284FF"/>
<rect x="385" y="111" width="20" height="78" fill="#3284FF"/>
<rect x="525" width="20" height="300" fill="#3284FF"/>
<rect x="665" y="86" width="20" height="128" fill="#3284FF"/>
<rect x="700" y="63" width="20" height="174" fill="#3284FF"/>
<rect x="735" y="91" width="20" height="118" fill="#3284FF"/>
</svg>
